#N canvas 727 336 1920 966 12;
#X listbox 95 76 20 0 0 0 - - - 0;
#X obj 95 99 print;
#X obj 95 52 netreceive 4242;
#X obj 174 19;
#X msg 95 23 listen 4242;
#X connect 0 0 1 0;
#X connect 2 0 0 0;
#X connect 4 0 2 0;
