#N canvas 786 110 450 300 12;
#X listbox 97 80 20 0 0 0 - - - 0;
#X obj 97 104 print;
#X msg 95 28 listen 4242;
#X obj 95 52 netreceive -b 4242;
#X listbox 250 228 20 0 0 0 - - - 0;
#X obj 250 204 fudiparse;
#X connect 0 0 1 0;
#X connect 0 0 5 0;
#X connect 2 0 3 0;
#X connect 3 0 0 0;
#X connect 5 0 4 0;
